<?xml version="1.0" encoding="utf-8"?>
<!-- Generator: Adobe Illustrator 26.3.1, SVG Export Plug-In . SVG Version: 6.00 Build 0)  -->
<svg version="1.1" id="Layer_1" xmlns="http://www.w3.org/2000/svg" xmlns:xlink="http://www.w3.org/1999/xlink" x="0px" y="0px"
	 viewBox="0 0 595.3 841.9" style="enable-background:new 0 0 595.3 841.9;" xml:space="preserve">
<style type="text/css">
	.st0{fill:#F07167;}
	.st1{fill:#FBFCF9;}
	.st2{fill:#00AFB9;}
</style>
<path class="st0" d="M15,631.8c1-12.2-2.7-24,4.8-34.6c1.4-1.9,1-5.2,1-7.9c0-62.8-0.1-125.5,0.2-188.3c0-7.5-2.8-11.5-9.2-14
	c-1.4-0.5-3-0.8-4.1-1.7c-2.1-1.8-5-3.8-5.5-6.1c-0.3-1.5,2.7-4.4,4.8-5.5c6.7-3.7,13.6-6.9,20.5-10.2
	c84.5-40.7,169.1-81.2,253.6-122.2c14.5-7,28.5-7.1,42.6-0.2c33.2,16.3,66.2,32.9,99.3,49.4c53.8,26.8,107.7,53.6,161.5,80.4
	c0.7,0.3,1.4,0.6,2,1c2.8,2.5,5.6,5,8.4,7.5c-3,2.6-5.6,5.9-9,7.7c-8.9,4.7-18.2,8.8-27.3,13.1c-21.9,10.1-43.8,20.3-65.9,30
	c-13.4,5.9-19.4,15.4-19.2,30.1c0.3,34.8,0,69.7-0.1,104.5c0,5.2-0.7,10.3-1.6,15.4c-1.2,7.2-6.6,10.5-12.8,13.2
	c-39.5,17.2-78.9,34.5-118.4,51.8c-9.5,4.1-19,8.2-28.4,12.4c-9.4,4.1-18.6,3.8-27.8-0.6c-47.4-23.1-94.6-46.4-142.1-69.2
	c-11.3-5.4-16-13.7-15.9-25.8c0.2-34.1,0-68.2,0.3-102.3c0.1-13.1-5.4-22-17.3-27.4c-20.4-9.2-40.7-18.6-61.1-27.9
	c-2.4-1.1-5.1-2-7.7-2.3c-7.7-1-9.1,0.3-9.1,8.1c0,60.3,0,120.6,0.1,180.9c0,3.1,2.3,6.1,3,9.3c1.9,9,3.6,18.1,4.8,27.2
	c0.2,1.2-3.5,3.8-5.5,4C28,632.1,22.1,631.8,15,631.8z M303.3,256.8c-5.8,2-11.4,3.2-16.4,5.6c-72.6,34.8-145.1,69.8-217.6,104.7
	c-5.1,2.5-8.4,5.8-8.3,11.9c0.1,5.8,3.5,8.9,8.3,11.1c8.3,3.8,16.6,7.5,24.9,11.3c62.9,29.3,125.9,58.5,188.7,88.1
	c11.5,5.4,21.9,5.5,33-0.5c9.7-5.3,20-9.4,30-14.3c5.1-2.5,9.6-2.2,14.6,0.8c11.2,6.6,22.7,12.9,34.3,18.9c12.4,6.5,21.1,1.8,22-12
	c0.5-8.9,0.5-17.8,0-26.7c-0.6-12,0.4-14.5,11.3-19.5c33.6-15.4,67.1-30.8,100.8-45.9c5.6-2.5,10-6.4,8.9-12
	c-0.8-4.3-4.8-9.3-8.8-11.4c-16.5-8.8-33.5-16.6-50.3-24.9c-52.3-26-104.5-52-156.8-77.9C316,261.2,309.6,259.3,303.3,256.8z
	 M458.4,511.4C458.4,511.4,458.4,511.4,458.4,511.4c-0.1-14.8,0.1-29.6-0.1-44.5c-0.1-7.1-4.6-12.3-11-12.6
	c-6.6-0.3-11.5,3-13.3,9.4c-1.2,4.2-1.6,8.7-1.7,13.1c-0.3,15.1,0,30.1-0.4,45.2c-0.3,11.7-4.9,14.5-14.8,9.2
	c-13.9-7.5-27.9-14.7-41.1-23.3c-16-10.5-31.3-11.3-47.7-1.3c-18,11.1-36.6,10.9-55.6,1.9c-36-17.1-72.2-33.8-108.4-50.6
	c-15.5-7.2-22.9-2.4-23.1,14.5c-0.1,18.3,0.7,36.6-0.8,54.8c-1.9,22,5.9,38.8,25.8,48.6c40,19.5,80.2,38.8,120.3,58.2
	c8.2,4,16.4,4.3,24.9,0.5c43.9-19.4,87.9-38.6,131.8-57.8c10.5-4.6,15.4-12.5,15.3-23.8C458.3,539.1,458.4,525.2,458.4,511.4z"/>
<path class="st1" d="M458.4,511.4c0,13.8-0.1,27.7,0,41.5c0.1,11.3-4.9,19.2-15.3,23.8c-44,19.2-87.9,38.5-131.8,57.8
	c-8.5,3.8-16.7,3.4-24.9-0.5c-40.1-19.4-80.3-38.6-120.3-58.2c-19.9-9.7-27.7-26.5-25.8-48.6c1.6-18.1,0.7-36.5,0.8-54.8
	c0.1-17,7.6-21.7,23.1-14.5c36.2,16.8,72.3,33.5,108.4,50.6c19,9,37.6,9.1,55.6-1.9c16.4-10,31.7-9.2,47.7,1.3
	c13.2,8.6,27.2,15.8,41.1,23.3c9.9,5.4,14.5,2.6,14.8-9.2c0.4-15.1,0.1-30.1,0.4-45.2c0.1-4.4,0.5-8.9,1.7-13.1
	c1.8-6.4,6.7-9.8,13.3-9.4c6.5,0.3,11,5.5,11,12.6C458.5,481.7,458.3,496.6,458.4,511.4C458.4,511.4,458.4,511.4,458.4,511.4z
	 M443.5,537.7c-10,12.2-18.7,14.3-31.8,7.4c-14-7.3-28.1-14.5-41.2-23.2c-12.8-8.5-24-9.5-37.5-1.4c-20.9,12.4-42.9,12.7-65,2.1
	c-22.9-10.9-45.9-21.5-68.9-32.2c-14.2-6.6-28.4-13.1-43.1-19.9c-0.1,2-0.2,3.2-0.2,4.4c-0.4,19.5-0.8,39-1.3,58.5
	c-0.4,14.5,6.3,23.9,19.4,30.1c38.9,18.5,77.5,37.4,116.2,56.3c5.9,2.9,11.3,3.1,17.5,0.4c39.1-17.4,78.4-34.4,117.5-51.7
	C445.9,559.3,444,564.1,443.5,537.7z"/>
<path class="st2" d="M280.3,298.9c4.1,1.5,8.1,2.5,11.9,4.3c48.5,22.2,96.9,44.6,145.3,66.9c4.7,2.1,9.6,3.7,14.3,5.9
	c6,2.9,6.7,7.2,1,10.3c-6.5,3.6-13.3,6.5-21.4,2.8c-55-25.2-110-50.2-165-75.4c-2.1-1-3.5-3.5-5.2-5.2c1.7-1.6,3.1-3.7,5.1-4.6
	C270.7,301.9,275.5,300.6,280.3,298.9z"/>
<path class="st2" d="M321.5,448.8c-4-1.4-7.3-2.2-10.4-3.6c-54.6-24.8-109.2-49.7-163.7-74.6c-1.9-0.9-4.4-3.2-4.4-4.9
	c0-1.7,2.5-3.8,4.4-5c9.4-6.1,18.3-4.7,28.2,0c48.7,23,97.7,45.3,146.6,67.7c4,1.8,8.2,3.2,12.3,5c5.1,2.2,5.7,5.8,1.2,8.8
	C331.4,445,326.2,446.7,321.5,448.8z"/>
<path class="st2" d="M217.8,328c4.1,1.2,7.8,1.8,11.1,3.3c41.7,18.9,83.3,37.9,124.8,57c2,0.9,3.4,3,5.1,4.6
	c-1.5,1.5-2.9,3.2-4.6,4.3c-9.2,5.7-17.8,5.7-28.1,0.8c-39.5-18.9-79.4-36.8-119.1-55.2c-2.4-1.1-4.2-3.5-6.3-5.3
	c2-1.6,3.8-3.6,6-4.7C210.2,330.8,214.2,329.5,217.8,328z"/>
<path class="st2" d="M443.5,537.7c0.4,26.4,2.4,21.6-18.4,30.8c-39.1,17.3-78.4,34.3-117.5,51.7c-6.2,2.8-11.5,2.5-17.5-0.4
	c-38.7-18.9-77.3-37.8-116.2-56.3c-13.1-6.2-19.7-15.6-19.4-30.1c0.5-19.5,0.9-39,1.3-58.5c0-1.2,0.1-2.4,0.2-4.4
	c14.6,6.8,28.9,13.3,43.1,19.9c23,10.7,46,21.3,68.9,32.2c22.1,10.6,44.1,10.3,65-2.1c13.5-8,24.8-7.1,37.5,1.4
	c13.1,8.7,27.2,15.9,41.2,23.2C424.9,552,433.6,549.8,443.5,537.7z"/>
</svg>
