<?xml version="1.0" encoding="utf-8"?>
<!-- Generator: Adobe Illustrator 26.3.1, SVG Export Plug-In . SVG Version: 6.00 Build 0)  -->
<svg version="1.1" id="Layer_1" xmlns="http://www.w3.org/2000/svg" xmlns:xlink="http://www.w3.org/1999/xlink" x="0px" y="0px"
	 viewBox="0 0 595.28 841.89" style="enable-background:new 0 0 595.28 841.89;" xml:space="preserve">
<style type="text/css">
	.st0{fill:#F07067;}
</style>
<path class="st0" d="M357.14,88.27c6.26,3.19,8.34,8.43,8.05,15.22c-0.3,7.26-0.07,14.54-0.07,22.55c2.56,0,4.62-0.01,6.67,0
	c14.04,0.08,28.1-0.34,42.11,0.35c24.03,1.17,41.65,19.3,42.34,43.23c0.39,13.64,0.16,27.31,0.02,40.96
	c-0.02,1.7-0.78,3.82-1.95,5.02c-9.93,10.18-20.04,20.19-31.33,31.49c0-3.15,0-4.88,0-6.61c0-22.12,0.01-44.23-0.01-66.35
	c-0.01-10.93-3.61-14.6-14.43-14.63c-14.21-0.04-28.42-0.01-43.42-0.01c0,5.32,0.07,10.25-0.02,15.18
	c-0.14,8.02-4.2,12.81-10.86,12.97c-6.81,0.16-10.99-4.25-11.49-12.29c-0.16-2.49-0.05-5-0.06-7.5c-0.01-2.48,0-4.96,0-7.9
	c-20.28,0-40.14,0-60.62,0c0,5.07,0.06,10.02-0.01,14.97c-0.13,7.95-4.29,12.69-11.05,12.73c-6.77,0.04-10.87-4.51-11.15-12.56
	c-0.16-4.61-0.12-9.22-0.21-13.84c-0.01-0.34-0.3-0.68-0.64-1.39c-17.79,0-35.74,0-54.32,0c0,5.19,0.09,10.14-0.02,15.09
	c-0.17,7.72-4.11,12.37-10.56,12.66c-6.86,0.31-11.31-4.04-11.76-11.97c-0.29-5.13-0.05-10.28-0.05-15.78c-21.18,0-41.69,0-63.27,0
	c0,4.95,0.17,10.05-0.04,15.14c-0.32,7.8-4.28,12.34-10.64,12.62c-6.84,0.29-11.37-4.23-11.85-11.99c-0.17-2.68-0.04-5.38-0.04-8.08
	c0-2.45,0-4.91,0-7.81c-14.72,0-28.89-0.24-43.05,0.12c-5.28,0.13-7.98,4.2-8.92,9.15c-0.39,2.05-0.21,4.22-0.21,6.33
	c-0.01,151.54-0.01,303.08-0.01,454.62c0,12.56,3.2,15.8,15.57,15.8c31.35,0.01,62.71-0.07,94.06,0.12c3.23,0.02,6.77,1.04,9.62,2.6
	c8.72,4.77,18.09,6.85,27.18,3.31c16.07-6.26,32.56-6.14,49.29-6.09c55.97,0.17,111.95,0.07,167.92,0.06
	c11.5,0,15.05-3.6,15.06-15.23c0.01-29.62-0.02-59.23,0.01-88.85c0.01-11.53-2.98-24.35,1.09-34.23
	c4.07-9.87,15.3-16.77,23.32-25.03c2.53-2.61,4.84-5.44,8.3-9.35c0.34,3.22,0.62,4.6,0.62,5.98c0.02,51.35,0.1,102.69-0.02,154.04
	c-0.06,27.03-19.21,45.99-46.28,46c-117.72,0.04-235.43,0.04-353.15,0c-26.78-0.01-45.93-18.99-45.94-45.68
	c-0.06-153.85-0.06-307.7,0-461.55c0.01-25.67,17.41-44.19,42.99-45.54c11.89-0.63,23.84-0.21,35.77-0.27c2.06-0.01,4.12,0,6.75,0
	c0-7.77,0.22-14.85-0.06-21.91c-0.27-6.9,1.53-12.49,7.99-15.86c2.31,0,4.62,0,6.93,0c6.31,3.53,8.02,9.2,7.8,16.01
	c-0.23,7.04-0.05,14.1-0.05,21.27c21.39,0,42.02,0,63.14,0c0-7.38,0.18-14.29-0.05-21.18c-0.23-6.79,1.5-12.44,7.65-16.1
	c2.31,0,4.62,0,6.93,0c6.24,3.18,8.33,8.4,8.05,15.18c-0.3,7.38-0.07,14.78-0.07,22.58c17.76,0,34.62-0.05,51.48,0.04
	c3.32,0.02,3.7-1.77,3.67-4.39c-0.07-5.95,0.25-11.91-0.09-17.84c-0.39-6.68,1.57-11.96,7.36-15.58c2.31,0,4.62,0,6.93,0
	c6.33,3.09,8.41,8.27,8.1,15.09c-0.33,7.38-0.08,14.79-0.08,22.36c20.47,0,40.13,0,60.63,0c0-7.33,0.19-14.37-0.06-21.38
	c-0.24-6.77,1.36-12.45,7.58-16.07C352.53,88.27,354.83,88.27,357.14,88.27z"/>
<path class="st0" d="M258.69,451.59c-3.67,0-5.74,0-7.8,0c-41.55,0-83.1,0-124.65,0c-1.54,0-3.08,0.07-4.62-0.02
	c-7.38-0.45-11.75-4.64-11.46-10.93c0.28-6.02,4.61-9.58,12.01-9.58c50.4-0.03,100.79-0.06,151.19,0.07
	c4.14,0.01,7.08-1.07,10.06-4.07c49.27-49.47,98.67-98.81,148.02-148.19c1.62-1.62,3.04-3.44,4.1-4.66
	c30.87,30.91,61.24,61.32,92.03,92.15c-0.56,0.61-1.9,2.16-3.34,3.6c-70.45,70.45-140.86,140.94-211.49,211.21
	c-4.17,4.14-9.81,7.55-15.4,9.39c-35.69,11.76-71.57,22.98-107.38,34.38c-0.37,0.12-0.74,0.36-1.09,0.33
	c-3.61-0.31-8.47,0.62-10.48-1.35c-1.99-1.94-2.26-7.17-1.31-10.36c6.08-20.39,12.7-40.62,19.16-60.9
	c5.12-16.08,9.97-32.25,15.57-48.16c1.84-5.23,4.93-10.46,8.73-14.48C232.53,477.3,245.13,465.15,258.69,451.59z M435.55,317.9
	c0.3-7.67-6.25-11.94-11.66-9.07c-2.14,1.14-3.93,3.04-5.69,4.8c-54.53,54.48-109.04,108.99-163.56,163.5
	c-1.22,1.22-2.48,2.42-3.59,3.74c-3.17,3.79-3.44,7.76,0.14,11.34c3.6,3.59,7.58,3.13,11.36,0.09c1.34-1.08,2.53-2.35,3.75-3.57
	c28.56-28.53,57.11-57.07,85.66-85.61c26.1-26.09,52.23-52.16,78.27-78.32C432.59,322.43,434.35,319.49,435.55,317.9z
	 M279.46,577.69c-18.31-18.38-36.67-36.8-54.93-55.12c-4.31,13.55-8.96,27.73-13.21,42.03c-0.55,1.85,0.26,4.92,1.58,6.37
	c5.84,6.36,11.96,12.49,18.31,18.34c1.46,1.35,4.54,2.21,6.39,1.66C251.91,586.68,266.1,581.98,279.46,577.69z"/>
<path class="st0" d="M543.39,348.63c-29.86-29.86-60.17-60.16-89.52-89.5c11.49-12.16,22.53-25.33,35.16-36.75
	c10.4-9.41,23.15-7.68,33.05,2.18c18.53,18.45,37.03,36.95,55.49,55.47c9.93,9.96,11.48,23.3,2.08,33.55
	C568.26,326.01,555.44,337.12,543.39,348.63z"/>
<path class="st0" d="M228.07,360.62c-34.4,0-68.8,0-103.19,0c-1.92,0-3.87,0.14-5.76-0.13c-5.18-0.74-8.41-3.73-8.88-9
	c-0.47-5.23,1.89-9.04,7.04-10.44c2.72-0.74,5.68-0.88,8.53-0.88c68.41-0.05,136.82-0.04,205.24,0c2.66,0,5.4,0.16,7.97,0.79
	c5.21,1.26,8.14,5.56,7.64,10.6c-0.48,4.94-4.33,8.58-9.63,9c-1.72,0.14-3.46,0.07-5.19,0.07
	C297.25,360.63,262.66,360.62,228.07,360.62z"/>
<path class="st0" d="M228.45,278.88c-34.4,0-68.8,0.01-103.2-0.01c-2.3,0-4.66,0.11-6.9-0.32c-4.88-0.94-7.79-4.05-8.14-9.04
	c-0.37-5.26,2.1-8.95,7.22-10.33c2.55-0.69,5.32-0.76,7.99-0.76c68.61-0.04,137.21-0.04,205.82,0c2.48,0,5.01,0.13,7.43,0.63
	c5.24,1.08,8.32,5.23,8.01,10.34c-0.3,4.98-3.99,8.75-9.27,9.3c-2.09,0.22-4.22,0.18-6.33,0.18
	C296.87,278.89,262.66,278.88,228.45,278.88z"/>
</svg>
