<?xml version="1.0" encoding="utf-8"?>
<!-- Generator: Adobe Illustrator 26.3.1, SVG Export Plug-In . SVG Version: 6.00 Build 0)  -->
<svg version="1.1" id="Layer_1" xmlns="http://www.w3.org/2000/svg" xmlns:xlink="http://www.w3.org/1999/xlink" x="0px" y="0px"
	 viewBox="0 0 595.28 841.89" style="enable-background:new 0 0 595.28 841.89;" xml:space="preserve">
<style type="text/css">
	.st0{fill:none;}
	.st1{fill:#0481A7;}
</style>
<path class="st0" d="M497.75,687.98c-0.16-2.08-0.46-4.16-0.46-6.23c-0.02-133.02-0.02-266.03-0.02-399.05c0-2.08,0-4.17,0-6.65
	c31.43,0,62.44,0,94.3,0c0,2.36,0,4.76,0,7.16c0,132.44,0,264.89,0.01,397.33c0,2.48,0.08,4.96,0.12,7.44
	C560.38,687.98,529.07,687.98,497.75,687.98z"/>
<path class="st1" d="M173.54,687.98c0.07-2.48,0.21-4.95,0.21-7.43c0.01-112.99,0.01-225.98,0.01-338.97c0-2.47,0-4.94,0-7.94
	c31.32,0,62.31,0,94.05,0c0.13,2.28,0.41,4.84,0.41,7.4c0.02,113.18,0.02,226.36,0.03,339.55c0,2.47,0.24,4.93,0.37,7.4
	C236.93,687.98,205.23,687.98,173.54,687.98z"/>
<path class="st1" d="M335.07,687.98c0.13-2.47,0.37-4.93,0.37-7.4c0.02-87.99,0.02-175.98,0.02-263.98c0-2.45,0-4.89,0-7.71
	c31.55,0,62.57,0,94.48,0c0,2.32,0,4.71,0,7.11c0,88.18,0,176.37,0.01,264.55c0,2.48,0.14,4.95,0.21,7.43
	C398.47,687.98,366.77,687.98,335.07,687.98z"/>
<path class="st1" d="M12,687.98c0.04-69.81,0.08-139.61,0.13-209.42c0-3.57,0-7.14,0-11.02c31.64,0,62.61,0,94.3,0
	c0,2.41,0,4.45,0,6.5c0,69.43,0,138.85-0.02,208.28c0,1.89-0.3,3.77-0.46,5.66C74.63,687.98,43.32,687.98,12,687.98z"/>
<path class="st1" d="M62.57,361.65c-20.52,0.01-38.23-12.54-44.97-31.86c-6.61-18.96-0.64-39.93,14.98-52.61
	c15.73-12.77,37.8-14.34,55.02-3.39c3.67,2.33,5.98,2.16,9.53,0.02c23.85-14.34,47.8-28.51,71.87-42.48
	c3.64-2.11,4.85-4.25,4.74-8.46c-0.78-28.49,20.85-50.72,48.48-50.18c24.43,0.47,45,19.98,46.32,44.19
	c0.19,3.45,1.54,4.92,4.54,6.13c23.29,9.43,46.54,18.94,69.73,28.6c3.57,1.49,5.92,1.23,9.1-1.41c14.6-12.14,31.09-14.51,48.73-7.69
	c3.53,1.36,5.71,1.11,8.59-1.36c27.65-23.74,55.38-47.39,83.26-70.86c3.26-2.74,3.82-4.98,2.78-9.07
	c-5.01-19.65,0.67-36.29,16.05-49.17c14.81-12.41,35.71-13.96,52.59-4.81c16.78,9.1,26.42,27.18,24.6,46.18
	c-2.98,31.16-34.02,51.05-63.42,40.39c-3.71-1.35-6-1.12-8.97,1.44c-28.38,24.36-56.85,48.61-85.43,72.72
	c-2.77,2.34-2.55,4.31-1.86,7.37c5.95,26.32-10.14,52.02-35.8,57.52c-26.52,5.68-52.1-10.31-56.82-37.2
	c-1.56-8.88-5.36-12.05-12.82-14.92c-21.14-8.13-42-16.98-62.9-25.73c-3.25-1.36-5.34-1.02-8.09,1.28
	c-17.12,14.28-38.21,15.68-57.28,3.81c-2.72-1.69-4.53-1.58-7.15-0.02c-24.88,14.83-49.87,29.48-74.7,44.4
	c-1.58,0.95-3.03,3.78-2.91,5.62C112.19,338.16,90.56,361.64,62.57,361.65z"/>
</svg>
